<svg xmlns="http://www.w3.org/2000/svg" xmlns:xlink="http://www.w3.org/1999/xlink" width="40" height="40" viewBox="0 0 40 40">
    <defs>
        <path id="eiscw133ma" d="M0 0H40V40H0z"/>
    </defs>
    <g fill="none" fill-rule="evenodd">
        <g>
            <g transform="translate(-835 -301) translate(835 301)">
                <mask id="d0op6i5imb" fill="#fff">
                    <use xlink:href="#eiscw133ma"/>
                </mask>
                <g mask="url(#d0op6i5imb)">
                    <g>
                        <path d="M1 0H41V40H1z" transform="translate(-1)"/>
                        <g>
                            <path fill="#AFAFAF" d="M11.839 7.09v11.893l-2.751-.001 1.138 7.188c.171 1.081-.566 2.096-1.647 2.268-1.082.17-2.097-.567-2.268-1.648l-1.237-7.808H3.03c-1.216 0-2.202-.985-2.202-2.202V9.293c0-1.217.986-2.203 2.202-2.203h8.809zM32.447.95c.061.155.093.32.093.486v7.973c1.965.114 3.523 1.744 3.523 3.738 0 1.993-1.558 3.623-3.522 3.737l-.001 7.761c0 .73-.592 1.321-1.321 1.321-.165 0-.328-.03-.482-.09L13.38 19.09V7.064L30.733.207c.679-.268 1.446.064 1.714.743z" transform="translate(-1) rotate(-11 47.463 .422)"/>
                        </g>
                    </g>
                </g>
            </g>
        </g>
    </g>
</svg>
