<svg xmlns="http://www.w3.org/2000/svg" width="30" height="30" viewBox="0 0 30 30">
    <g fill="none" fill-rule="evenodd">
        <g>
            <g>
                <path d="M0 0H30V30H0z" transform="translate(-605 -749) translate(605 749)"/>
                <path fill="#FFF" d="M24.962 9.829l-1.405 15.772C23.436 26.96 22.298 28 20.935 28H9.052c-1.364 0-2.502-1.042-2.622-2.401L5.038 9.829h19.924zM18.371 2c.43 0 .78.35.78.78v1.63c0 .069-.01.136-.026.2h6.485c.215 0 .39.174.39.39v1.83c0 .215-.175.39-.39.39H4.39c-.215 0-.39-.175-.39-.39V5c0-.216.175-.39.39-.39h6.485c-.017-.064-.026-.131-.026-.2V2.78c0-.43.35-.78.78-.78h6.742z" transform="translate(-605 -749) translate(605 749)"/>
            </g>
        </g>
    </g>
</svg>
