<svg xmlns="http://www.w3.org/2000/svg" width="30" height="30" viewBox="0 0 30 30">
    <g fill="none" fill-rule="evenodd">
        <g fill="#AFAFAF">
            <g>
                <path d="M15 0c8.284 0 15 6.716 15 15 0 8.284-6.716 15-15 15-8.284 0-15-6.716-15-15C0 6.716 6.716 0 15 0zm-.313 19.129c-.462 0-.841.142-1.137.425-.296.283-.445.643-.445 1.079 0 .43.145.784.435 1.064.29.28.672.42 1.148.42.475 0 .857-.14 1.147-.42.29-.28.435-.634.435-1.064 0-.436-.149-.796-.445-1.08-.296-.282-.675-.424-1.137-.424zm.196-11.543c-1.367 0-2.446.351-3.237 1.055-.735.653-1.134 1.538-1.198 2.657l-.009.263h2.832c.014-.521.165-.93.455-1.226.29-.296.675-.444 1.157-.444 1.015 0 1.523.55 1.523 1.65 0 .365-.097.711-.293 1.04-.195.329-.587.755-1.176 1.28-.59.523-.995 1.056-1.216 1.596-.197.48-.306 1.107-.328 1.88l-.004.298h2.5l.039-.596c.063-.567.294-1.07.692-1.508l.157-.162.791-.752c.619-.599 1.052-1.144 1.3-1.636.247-.491.37-1.014.37-1.567 0-1.217-.38-2.16-1.142-2.827-.762-.667-1.833-1.001-3.213-1.001z" transform="translate(-543 -312) translate(543 312)"/>
            </g>
        </g>
    </g>
</svg>
