<svg xmlns="http://www.w3.org/2000/svg" width="30" height="30" viewBox="0 0 30 30">
    <g fill="none" fill-rule="evenodd">
        <g>
            <g>
                <path d="M0 0H29.862V29.862H0z" transform="translate(-606 -426) translate(606 426)"/>
                <path fill="#FFF" d="M22.934 2.986c2.727 0 4.937 2.21 4.937 4.937v8.351c0 2.727-2.21 4.937-4.937 4.937h-9.992L9.217 25.46c-.205.234-.49.38-.796.413l-.132.007h-.16c-.396 0-.718-.322-.718-.719l-.001-3.95h-.482c-2.727 0-4.937-2.21-4.937-4.937v-8.35c0-2.727 2.21-4.938 4.937-4.938h16.006z" transform="translate(-606 -426) translate(606 426)"/>
            </g>
        </g>
    </g>
</svg>
