<svg xmlns="http://www.w3.org/2000/svg" width="30" height="30" viewBox="0 0 30 30">
    <g fill="none" fill-rule="evenodd">
        <g>
            <g>
                <path d="M0 0H30V30H0z" transform="translate(-605 -684) translate(605 684)"/>
                <g fill="#FFF" fill-rule="nonzero">
                    <path d="M21.2.5c.78 0 1.42.595 1.493 1.356L22.7 2v3.6c0 .828-.672 1.5-1.5 1.5-.78 0-1.42-.595-1.493-1.356L19.7 5.6V3.5h-6.601v16.199l2.101.001c.828 0 1.5.672 1.5 1.5 0 .78-.595 1.42-1.356 1.493l-.144.007h-3.6l-.022-.001L8 22.7c-.828 0-1.5-.672-1.5-1.5 0-.78.595-1.42 1.356-1.493L8 19.7l2.099-.001V3.5H3.5v2.1c0 .78-.595 1.42-1.356 1.493L2 7.1C1.22 7.1.58 6.505.507 5.744L.5 5.6V2c0-.78.595-1.42 1.356-1.493L2 .5h19.2z" transform="translate(-605 -684) translate(605 684) translate(3 3)"/>
                </g>
            </g>
        </g>
    </g>
</svg>
