<svg xmlns="http://www.w3.org/2000/svg" width="25" height="25" viewBox="0 0 25 25">
    <g fill="none" fill-rule="evenodd">
        <g>
            <g>
                <path d="M0 0H25V25H0z" transform="translate(-290 -357) translate(290 357)"/>
                <g fill="#AFAFAF">
                    <g>
                        <path d="M17.115 0h3.27c.445 0 .607.046.77.134.163.087.29.215.378.378.087.163.134.324.134.77v3.27c0 .445-.047.607-.134.77-.087.163-.215.29-.378.378-.163.087-.325.133-.77.133h-3.27c-.445 0-.607-.046-.77-.133-.163-.087-.29-.215-.378-.378-.087-.163-.134-.325-.134-.77v-3.27c0-.446.047-.607.134-.77.087-.163.215-.291.378-.378.163-.088.325-.134.77-.134zM9.199 0h3.27c.445 0 .606.046.77.134.162.087.29.215.377.378.088.163.134.324.134.77v3.27c0 .445-.046.607-.134.77-.087.163-.215.29-.378.378-.163.087-.324.133-.77.133h-3.27c-.445 0-.607-.046-.77-.133-.163-.087-.29-.215-.378-.378-.087-.163-.133-.325-.133-.77v-3.27c0-.446.046-.607.133-.77.087-.163.215-.291.378-.378.163-.088.325-.134.77-.134zM1.282 0h3.27c.445 0 .607.046.77.134.163.087.29.215.378.378.087.163.133.324.133.77v3.27c0 .445-.046.607-.133.77-.087.163-.215.29-.378.378-.163.087-.325.133-.77.133h-3.27c-.446 0-.607-.046-.77-.133-.163-.087-.291-.215-.378-.378C.046 5.159 0 4.997 0 4.552v-3.27C0 .836.046.675.134.512.22.349.349.22.512.134.675.046.836 0 1.282 0z" transform="translate(-290 -357) translate(290 357) translate(1.667 2.083)"/>
                    </g>
                    <path d="M2.564 7.917h16.539c.891 0 1.215.092 1.54.267.326.174.582.43.757.756.174.326.267.649.267 1.54v8.206c0 .892-.093 1.215-.267 1.54-.175.327-.43.583-.756.757-.326.174-.65.267-1.541.267H2.563c-.89 0-1.214-.093-1.54-.267-.326-.174-.582-.43-.756-.756C.093 19.9 0 19.577 0 18.687V10.48c0-.892.093-1.215.267-1.541.174-.326.43-.582.756-.756.326-.175.65-.267 1.54-.267z" transform="translate(-290 -357) translate(290 357) translate(1.667 2.083)"/>
                </g>
            </g>
        </g>
    </g>
</svg>
