<svg xmlns="http://www.w3.org/2000/svg" width="30" height="30" viewBox="0 0 30 30">
    <g fill="none" fill-rule="evenodd">
        <g fill="#FFF">
            <g>
                <path d="M26.826 12.857l2.113-1.14c.32-.168.557-.457.66-.803.104-.345.063-.718-.111-1.033l-2.304-4.162c-.367-.66-1.198-.9-1.862-.54l-2.12 1.147c-.744.331-1.605.27-2.294-.165-.29-.187-.585-.358-.88-.517-.719-.38-1.193-1.101-1.257-1.911V1.356c0-.36-.145-.707-.402-.961-.256-.255-.603-.397-.965-.395H12.6c-.751-.001-1.361.605-1.365 1.356v2.385c-.065.808-.538 1.526-1.254 1.905-.235.127-.471.262-.7.405-.7.42-1.564.462-2.302.112l-1.622-.915c-.654-.374-1.487-.154-1.87.495L1.09 9.857c-.181.311-.23.682-.134 1.03.095.346.327.64.642.815l1.62.924c.676.444 1.075 1.207 1.054 2.016v.51c-.002.809-.417 1.56-1.102 1.99l-2.1 1.145c-.319.168-.557.458-.66.803-.102.346-.061.718.114 1.034l2.29 4.155c.368.66 1.2.9 1.863.54l2.128-1.147c.74-.334 1.6-.272 2.286.165.29.187.585.36.89.517.715.382 1.188 1.102 1.253 1.911v2.379c.005.75.616 1.357 1.367 1.356h4.802c.752.002 1.365-.604 1.37-1.356v-2.388c.06-.808.534-1.528 1.253-1.902.236-.129.47-.264.699-.405.7-.42 1.565-.462 2.303-.112l1.618.913c.654.374 1.486.154 1.869-.495l2.393-4.112c.18-.312.228-.683.132-1.03s-.327-.64-.642-.815l-1.624-.922c-.67-.451-1.065-1.21-1.05-2.018v-.517c.004-.806.42-1.554 1.101-1.984zM15 20.28c-2.907-.041-5.235-2.425-5.207-5.332.028-2.908 2.4-5.246 5.308-5.232 2.908.015 5.257 2.376 5.256 5.284-.008 1.411-.577 2.761-1.582 3.752-1.006.99-2.364 1.54-3.775 1.528z" transform="translate(-606 -365) translate(606 365)"/>
            </g>
        </g>
    </g>
</svg>
