<svg xmlns="http://www.w3.org/2000/svg" width="25" height="25" viewBox="0 0 25 25">
    <g fill="none" fill-rule="evenodd">
        <g fill="#AFAFAF">
            <g>
                <path d="M16.025 0h6.411c.892 0 1.215.093 1.54.267.327.174.583.43.757.756.174.326.267.65.267 1.54v6.412c0 .891-.093 1.214-.267 1.54-.174.326-.43.582-.756.756-.326.175-.65.267-1.54.267h-6.412c-.891 0-1.214-.092-1.54-.267-.326-.174-.582-.43-.756-.756-.175-.326-.267-.649-.267-1.54V2.564c0-.892.092-1.215.267-1.54.174-.327.43-.583.756-.757.326-.174.649-.267 1.54-.267zM16.025 13.462h6.411c.892 0 1.215.092 1.54.267.327.174.583.43.757.756.174.326.267.649.267 1.54v6.411c0 .892-.093 1.215-.267 1.54-.174.327-.43.583-.756.757-.326.174-.65.267-1.54.267h-6.412c-.891 0-1.214-.093-1.54-.267-.326-.174-.582-.43-.756-.756-.175-.326-.267-.65-.267-1.54v-6.412c0-.891.092-1.214.267-1.54.174-.326.43-.582.756-.756.326-.175.649-.267 1.54-.267zM2.564 0h6.41c.892 0 1.215.093 1.541.267.326.174.582.43.756.756.175.326.267.65.267 1.54v6.412c0 .891-.092 1.214-.267 1.54-.174.326-.43.582-.756.756-.326.175-.649.267-1.54.267H2.564c-.892 0-1.215-.092-1.54-.267-.327-.174-.583-.43-.757-.756C.093 10.19 0 9.866 0 8.975V2.564c0-.892.093-1.215.267-1.54.174-.327.43-.583.756-.757C1.35.093 1.673 0 2.563 0zM2.564 13.462h6.41c.892 0 1.215.092 1.541.267.326.174.582.43.756.756.175.326.267.649.267 1.54v6.411c0 .892-.092 1.215-.267 1.54-.174.327-.43.583-.756.757-.326.174-.649.267-1.54.267H2.564c-.892 0-1.215-.093-1.54-.267-.327-.174-.583-.43-.757-.756-.174-.326-.267-.65-.267-1.54v-6.412c0-.891.093-1.214.267-1.54.174-.326.43-.582.756-.756.326-.175.65-.267 1.54-.267z" transform="translate(-290 -312) translate(290 312)"/>
            </g>
        </g>
    </g>
</svg>
