<svg xmlns="http://www.w3.org/2000/svg" width="25" height="25" viewBox="0 0 25 25">
    <defs>
        <filter id="jlra4d3oua">
            <feColorMatrix in="SourceGraphic" values="0 0 0 0 1.000000 0 0 0 0 1.000000 0 0 0 0 1.000000 0 0 0 1.000000 0"/>
        </filter>
    </defs>
    <g fill="none" fill-rule="evenodd">
        <g filter="url(#jlra4d3oua)" transform="translate(-290 -496)">
            <g>
                <path d="M0 0H25V24.194H0z" transform="translate(290 496)"/>
                <g fill="#30D158">
                    <path d="M15.167 7.972c.513 0 .935.386.993.883l.007.117v1.971c0 4.037-3.096 7.359-7.084 7.84v1.688h2.75c.553 0 1 .448 1 1 0 .514-.386.936-.883.994l-.117.007h-7.5c-.552 0-1-.448-1-1 0-.513.386-.936.884-.993l.116-.007 2.75-.001v-1.688C3.177 18.31.127 15.115.003 11.189L0 10.943V8.972c0-.553.448-1 1-1 .513 0 .936.386.993.883L2 8.972v1.971c0 3.252 2.718 5.9 6.083 5.9 3.29 0 5.96-2.529 6.08-5.68l.004-.22V8.972c0-.553.447-1 1-1zM8.083.1C9.694.1 11 1.416 11 3.039v7.834c0 1.622-1.306 2.937-2.917 2.937-1.61 0-2.916-1.315-2.916-2.937V3.039C5.167 1.416 6.473.1 8.083.1z" transform="translate(290 496) translate(4.208 1.815)"/>
                </g>
            </g>
        </g>
    </g>
</svg>
