<svg xmlns="http://www.w3.org/2000/svg" width="30" height="30" viewBox="0 0 30 30">
    <g fill="none" fill-rule="evenodd">
        <g>
            <g>
                <path d="M0 0H30V30H0z" transform="translate(-606 -489) translate(606 489)"/>
                <g fill="#FFF" transform="translate(-606 -489) translate(606 489) translate(2 4)">
                    <path d="M21.888 20.444v-.456c0-3.022-2.45-5.472-5.472-5.472H5.472C2.45 14.516 0 16.966 0 19.988v.456c0 1.26 1.02 2.28 2.28 2.28h17.328c1.26 0 2.28-1.02 2.28-2.28z"/>
                    <circle cx="10.944" cy="5.472" r="5.472"/>
                    <path d="M25.992 21.584v-1.596c-.002-2.494-1.91-4.74-5.156-5.2 1.31 1.221 2.09 2.424 2.34 3.61.193.908.284 1.967.275 3.177-.005.63.502 1.144 1.131 1.149h.27c.63 0 1.14-.51 1.14-1.14zM16.807.27c2.546.414 5.092 2.35 5.092 5.209 0 2.859-2.097 4.633-4.518 5.253 1.18-1.216 1.771-2.97 1.771-5.26 0-2.29-.782-4.025-2.345-5.203z"/>
                </g>
            </g>
        </g>
    </g>
</svg>
