<svg xmlns="http://www.w3.org/2000/svg" width="25" height="25" viewBox="0 0 25 25">
    <g fill="none" fill-rule="evenodd">
        <g>
            <g>
                <path d="M0 0H25V24.194H0z" transform="translate(-380 -496) translate(380 496)"/>
                <path fill="#FFF" d="M5.208 9.786c.513 0 .936.386.994.884l.006.116v1.972c0 3.252 2.718 5.9 6.084 5.9 1.568 0 2.995-.575 4.073-1.518l1.34 1.484c-1.2 1.059-2.727 1.77-4.413 1.973v1.689h2.75c.552 0 1 .448 1 1 0 .513-.386.936-.884.994l-.116.006h-7.5c-.553 0-1-.447-1-1 0-.513.386-.935.883-.993l.117-.007h2.75v-1.689c-3.907-.471-6.957-3.668-7.08-7.593l-.004-.246v-1.972c0-.552.448-1 1-1zm14.167 0c.513 0 .936.386.993.884l.007.116v1.972c0 1.61-.493 3.108-1.339 4.356l-1.395-1.546c.434-.775.694-1.655.73-2.59l.004-.22v-1.972c0-.552.448-1 1-1zm-10-.394l4.909 5.441c-.522.491-1.222.792-1.992.792-1.554 0-2.823-1.223-2.912-2.765l-.005-.173V9.392zm2.917-7.477c1.553 0 2.823 1.223 2.911 2.765l.005.173v7.834c0 .06-.001.121-.005.18L9.374 6.409l.001-1.555c0-1.622 1.306-2.938 2.917-2.938z" transform="translate(-380 -496) translate(380 496)"/>
                <path fill="#FFF" fill-rule="nonzero" d="M2.83 1.758c.379-.342.946-.34 1.323-.016l.09.088 18.5 20.5c.37.41.337 1.042-.073 1.412-.379.342-.946.34-1.323.016l-.09-.088-18.5-20.5c-.37-.41-.337-1.042.073-1.412z" transform="translate(-380 -496) translate(380 496)"/>
            </g>
        </g>
    </g>
</svg>
