<svg xmlns="http://www.w3.org/2000/svg" width="170" height="24" viewBox="0 0 170 24">
    <g fill="none" fill-rule="evenodd">
        <g fill="#45CBDE">
            <path d="M34.785 22.637h3.82V7.46h-3.82v15.177zM34.42 2.73c0-1.323.955-2.281 2.275-2.281 1.32 0 2.248.958 2.248 2.28 0 1.324-.928 2.253-2.248 2.253-1.32 0-2.275-.929-2.275-2.252zM41.572 20.259L49.128 10.586 41.829 10.586 41.829 7.46 54.549 7.46 54.549 9.91 47.021 19.484 54.859 19.484 54.859 22.637 41.572 22.637zM57.813 20.3l1.865-2.38c1.67 1.242 3.494 1.704 5.27 1.704 2.612 0 4.129-.901 4.129-2.506 0-1.69-1.742-2.422-4.354-3.153l-1.18-.338c-3.426-.93-5.983-2.366-5.983-5.773 0-3.801 3.062-6.335 7.697-6.335 2.668 0 5.027.788 7.022 2.393 0 0-1.744 2.198-2.028 2.56-1.471-1.106-3.056-1.659-4.966-1.659-2.191 0-3.624.93-3.624 2.394 0 1.661 1.658 2.252 3.708 2.844l1.208.338c3.202.872 6.601 2.618 6.601 6.363 0 3.689-3.203 6.167-7.977 6.167-2.865 0-5.534-.902-7.388-2.62M76.128 15.034c0-4.702 3.259-7.855 8.146-7.855 1.982 0 3.721.621 5.112 1.68l-2.078 2.656c-.786-.676-1.714-1.07-2.977-1.07-2.529 0-4.242 1.83-4.242 4.59s1.685 4.59 4.27 4.59c1.404 0 2.555-.423 3.426-1.353 0 0 1.867 2.368 2.072 2.625-1.428 1.374-3.44 2.022-5.667 2.022-4.831 0-8.062-3.154-8.062-7.885M107.11 13.091v9.546h-3.82v-8.926c0-1.971-1.405-3.266-3.54-3.266s-3.539 1.295-3.539 3.266v8.926h-3.82V.674h3.82V9.29c1.151-1.408 2.893-2.111 4.86-2.111 3.623 0 6.039 2.365 6.039 5.912M122.352 15.034c0-2.759-1.657-4.589-4.13-4.589-2.5 0-4.157 1.83-4.157 4.59s1.658 4.59 4.158 4.59c2.472 0 4.13-1.83 4.13-4.59m-12.248 0c0-4.703 3.259-7.856 8.118-7.856 4.831 0 8.09 3.153 8.09 7.855 0 4.731-3.259 7.885-8.09 7.885-4.86 0-8.118-3.154-8.118-7.885M141.544 15.034c0-2.759-1.657-4.589-4.129-4.589-2.5 0-4.157 1.83-4.157 4.59s1.657 4.59 4.157 4.59c2.472 0 4.13-1.83 4.13-4.59m-12.248 0c0-4.703 3.259-7.856 8.118-7.856 4.831 0 8.09 3.153 8.09 7.855 0 4.731-3.259 7.885-8.09 7.885-4.86 0-8.118-3.154-8.118-7.885M148.538 22.637L152.359 22.637 152.359.674 148.538.674zM168.516 6.46L155.341.688 155.341 4.106 164.607 8.172 155.341 12.232 155.341 15.66 168.505 9.883 168.543 9.9 168.543 9.866 168.543 6.472 168.543 6.448zM27.788 1.801L22.611 17.315 17.752 1.801 14.044 1.801 9.241 17.315 4.029 1.801 0 1.801 6.906 22.637 10.87 22.637 15.898 6.247 20.954 22.637 24.939 22.637 31.796 1.801z" transform="translate(1)"/>
        </g>
        <g fill="#FFF">
            <path d="M34.785 22.637h3.82V7.46h-3.82v15.177zM34.42 2.73c0-1.323.955-2.281 2.275-2.281 1.32 0 2.248.958 2.248 2.28 0 1.324-.928 2.253-2.248 2.253-1.32 0-2.275-.929-2.275-2.252zM41.572 20.259L49.128 10.586 41.829 10.586 41.829 7.46 54.549 7.46 54.549 9.91 47.021 19.484 54.859 19.484 54.859 22.637 41.572 22.637zM57.813 20.3l1.865-2.38c1.67 1.242 3.494 1.704 5.27 1.704 2.612 0 4.129-.901 4.129-2.506 0-1.69-1.742-2.422-4.354-3.153l-1.18-.338c-3.426-.93-5.983-2.366-5.983-5.773 0-3.801 3.062-6.335 7.697-6.335 2.668 0 5.027.788 7.022 2.393 0 0-1.744 2.198-2.028 2.56-1.471-1.106-3.056-1.659-4.966-1.659-2.191 0-3.624.93-3.624 2.394 0 1.661 1.658 2.252 3.708 2.844l1.208.338c3.202.872 6.601 2.618 6.601 6.363 0 3.689-3.203 6.167-7.977 6.167-2.865 0-5.534-.902-7.388-2.62M76.128 15.034c0-4.702 3.259-7.855 8.146-7.855 1.982 0 3.721.621 5.112 1.68l-2.078 2.656c-.786-.676-1.714-1.07-2.977-1.07-2.529 0-4.242 1.83-4.242 4.59s1.685 4.59 4.27 4.59c1.404 0 2.555-.423 3.426-1.353 0 0 1.867 2.368 2.072 2.625-1.428 1.374-3.44 2.022-5.667 2.022-4.831 0-8.062-3.154-8.062-7.885M107.11 13.091v9.546h-3.82v-8.926c0-1.971-1.405-3.266-3.54-3.266s-3.539 1.295-3.539 3.266v8.926h-3.82V.674h3.82V9.29c1.151-1.408 2.893-2.111 4.86-2.111 3.623 0 6.039 2.365 6.039 5.912M122.352 15.034c0-2.759-1.657-4.589-4.13-4.589-2.5 0-4.157 1.83-4.157 4.59s1.658 4.59 4.158 4.59c2.472 0 4.13-1.83 4.13-4.59m-12.248 0c0-4.703 3.259-7.856 8.118-7.856 4.831 0 8.09 3.153 8.09 7.855 0 4.731-3.259 7.885-8.09 7.885-4.86 0-8.118-3.154-8.118-7.885M141.544 15.034c0-2.759-1.657-4.589-4.129-4.589-2.5 0-4.157 1.83-4.157 4.59s1.657 4.59 4.157 4.59c2.472 0 4.13-1.83 4.13-4.59m-12.248 0c0-4.703 3.259-7.856 8.118-7.856 4.831 0 8.09 3.153 8.09 7.855 0 4.731-3.259 7.885-8.09 7.885-4.86 0-8.118-3.154-8.118-7.885M148.538 22.637L152.359 22.637 152.359.674 148.538.674zM168.516 6.46L155.341.688 155.341 4.106 164.607 8.172 155.341 12.232 155.341 15.66 168.505 9.883 168.543 9.9 168.543 9.866 168.543 6.472 168.543 6.448zM27.788 1.801L22.611 17.315 17.752 1.801 14.044 1.801 9.241 17.315 4.029 1.801 0 1.801 6.906 22.637 10.87 22.637 15.898 6.247 20.954 22.637 24.939 22.637 31.796 1.801z" transform="translate(1)"/>
        </g>
    </g>
</svg>
